<svg width="23" height="24" viewBox="0 0 23 24" fill="none" xmlns="http://www.w3.org/2000/svg">
<path fill-rule="evenodd" clip-rule="evenodd" d="M6.42375 0.0821481C6.10624 0.256796 6.04836 0.387294 6.02921 0.971087L6.01213 1.49258L4.37548 1.49343C3.1428 1.49408 2.65454 1.51213 2.39731 1.56653C1.25654 1.80768 0.320724 2.73812 0.0830377 3.86755C-0.0279128 4.39489 -0.027562 21.0931 0.0833885 21.6159C0.20812 22.2033 0.456581 22.6523 0.903641 23.0984C1.3507 23.5444 1.80077 23.7923 2.3895 23.9168C2.91483 24.0278 19.6013 24.0278 20.1266 23.9168C20.7129 23.7928 21.1658 23.5441 21.6065 23.104C22.0452 22.6659 22.2615 22.2899 22.4117 21.704C22.5055 21.338 22.5085 21.0617 22.5085 12.7424C22.5085 4.42314 22.5055 4.1469 22.4117 3.78085C22.2615 3.19501 22.0452 2.81901 21.6065 2.38087C21.3163 2.09102 21.1262 1.95002 20.8476 1.81808C20.2269 1.52398 19.9802 1.49443 18.1361 1.49343L16.4949 1.49258V1.04099C16.4949 0.511693 16.4251 0.306745 16.1874 0.137547C15.9642 -0.0213006 15.5631 -0.0294505 15.3616 0.120698C15.0714 0.336845 15.0215 0.457243 14.9999 0.993937L14.9798 1.49258H11.2569H7.53401L7.51682 0.996087C7.50274 0.589992 7.48079 0.474543 7.39625 0.361695C7.14007 0.0196989 6.74413 -0.0940997 6.42375 0.0821481ZM6.02125 3.44416C6.02125 3.97345 6.091 4.1784 6.32879 4.34759C6.55194 4.50644 6.953 4.51459 7.15455 4.36445C7.44792 4.14595 7.49823 4.0243 7.51682 3.48906L7.53401 2.99256H11.2569H14.9798L14.9999 3.49121C15.0161 3.89335 15.0397 4.01605 15.1216 4.1256C15.471 4.59259 16.0762 4.60319 16.3811 4.14765C16.4802 3.99975 16.4949 3.91405 16.4949 3.48516V2.99256H18.0894C19.8954 2.99256 20.0291 3.01231 20.4455 3.34066C20.6122 3.47216 20.7414 3.63265 20.8371 3.8272C20.9765 4.11045 20.9804 4.1404 20.9956 5.05504L21.0111 5.99252H11.2572H1.50324L1.51968 5.05124C1.53597 4.11715 1.53727 4.1077 1.68736 3.8152C1.86115 3.47636 2.20834 3.18111 2.56344 3.07006C2.73688 3.01581 3.16209 2.99871 4.4051 2.99606L6.02125 2.99256V3.44416ZM21.0051 14.3655C21.0051 21.1253 21.0034 21.243 20.9045 21.5069C20.768 21.8708 20.5087 22.1581 20.1644 22.3268L19.8775 22.4673H11.2581H2.63861L2.41054 22.362C2.07714 22.2081 1.83434 21.9733 1.67593 21.6514L1.53612 21.3673L1.52289 14.4299L1.50966 7.49251H11.2574H21.0051V14.3655ZM4.03271 10.5853C3.66478 10.7121 3.34926 10.9881 3.18073 11.3305C3.04132 11.6138 3.03931 11.631 3.02428 12.6709C3.0104 13.6343 3.01791 13.7479 3.11238 13.9998C3.25144 14.3706 3.50877 14.6572 3.85516 14.8269L4.142 14.9674H5.26955C6.36823 14.9674 6.40326 14.9643 6.63814 14.8446C6.96969 14.6756 7.21379 14.4254 7.36874 14.0958C7.49708 13.8228 7.49958 13.7968 7.49958 12.7424C7.49958 11.6829 7.49768 11.6635 7.36713 11.3925C7.1512 10.9442 6.81564 10.6631 6.36237 10.5508C6.22481 10.5167 5.74643 10.4932 5.20976 10.4941C4.46132 10.4954 4.24453 10.5122 4.03271 10.5853ZM10.0469 10.5832C9.59251 10.7431 9.25264 11.0699 9.10421 11.4897C8.99225 11.8062 8.99496 13.6777 9.10781 14.0082C9.21681 14.3274 9.5656 14.7014 9.89103 14.8481C10.1435 14.962 10.2048 14.9674 11.233 14.9674C12.4797 14.9674 12.6433 14.9301 13.0466 14.5537C13.4404 14.1861 13.4881 13.9907 13.4881 12.7424C13.4881 11.5205 13.4399 11.312 13.0752 10.9557C12.6722 10.5622 12.5065 10.5193 11.3332 10.5048C10.4458 10.4938 10.2706 10.5045 10.0469 10.5832ZM16.119 10.5606C15.652 10.7122 15.3268 10.9945 15.1318 11.4175C15.0229 11.6537 15.0166 11.7266 15.0166 12.7424C15.0166 13.7993 15.0188 13.8221 15.148 14.0924C15.316 14.444 15.5467 14.6746 15.8935 14.8378C16.1641 14.9651 16.1894 14.9674 17.2716 14.9674H18.3741L18.6578 14.8284C19.0141 14.6539 19.2588 14.3863 19.3954 14.0221C19.4907 13.7681 19.5017 13.6352 19.5017 12.7424C19.5017 11.8673 19.4895 11.7136 19.4011 11.4779C19.2646 11.114 19.0053 10.8267 18.661 10.658C18.3777 10.5193 18.3612 10.5173 17.3468 10.5065C16.6129 10.4987 16.2623 10.5141 16.119 10.5606ZM6.02125 12.7424V13.4924H5.26955H4.51785V12.7424V11.9925H5.26955H6.02125V12.7424ZM11.9847 12.7424V13.4924H11.2581H10.5314V12.7424V11.9925H11.2581H11.9847V12.7424ZM17.9983 12.7424V13.4924H17.2466H16.4949V12.7424V11.9925H17.2466H17.9983V12.7424ZM4.03271 16.5852C3.66478 16.712 3.34926 16.988 3.18073 17.3304C3.04132 17.6137 3.03931 17.6309 3.02428 18.6708C3.0104 19.6343 3.01791 19.7478 3.11238 19.9998C3.25144 20.3705 3.50877 20.6571 3.85516 20.8268L4.142 20.9673H5.26955C6.36823 20.9673 6.40326 20.9642 6.63814 20.8445C6.96969 20.6755 7.21379 20.4253 7.36874 20.0957C7.49708 19.8227 7.49958 19.7968 7.49958 18.7424C7.49958 17.6828 7.49768 17.6634 7.36713 17.3924C7.1512 16.9441 6.81564 16.663 6.36237 16.5507C6.22481 16.5166 5.74643 16.4931 5.20976 16.494C4.46132 16.4953 4.24453 16.5121 4.03271 16.5852ZM10.0469 16.5831C9.59251 16.743 9.25264 17.0698 9.10421 17.4896C8.99225 17.8061 8.99496 19.6777 9.10781 20.0082C9.21681 20.3273 9.5656 20.7013 9.89103 20.848C10.1435 20.9619 10.2048 20.9673 11.233 20.9673C12.4797 20.9673 12.6433 20.93 13.0466 20.5536C13.4404 20.186 13.4881 19.9906 13.4881 18.7424C13.4881 17.5204 13.4399 17.3119 13.0752 16.9556C12.6722 16.5621 12.5065 16.5192 11.3332 16.5047C10.4458 16.4937 10.2706 16.5044 10.0469 16.5831ZM16.119 16.5605C15.652 16.7121 15.3268 16.9944 15.1318 17.4174C15.0229 17.6536 15.0166 17.7265 15.0166 18.7424C15.0166 19.7979 15.0189 19.8224 15.1475 20.0924C15.3044 20.4219 15.5555 20.68 15.88 20.8454C16.1124 20.9639 16.1503 20.9673 17.2466 20.9673H18.3741L18.6578 20.8283C19.0141 20.6538 19.2588 20.3862 19.3954 20.022C19.4907 19.7681 19.5017 19.6351 19.5017 18.7424C19.5017 17.8672 19.4895 17.7135 19.4011 17.4778C19.2646 17.1139 19.0053 16.8266 18.661 16.6579C18.3777 16.5192 18.3612 16.5172 17.3468 16.5064C16.6129 16.4986 16.2623 16.514 16.119 16.5605ZM6.02125 18.7424V19.4924H5.26955H4.51785V18.7424V17.9924H5.26955H6.02125V18.7424ZM11.9847 18.7424V19.4924H11.2581H10.5314V18.7424V17.9924H11.2581H11.9847V18.7424ZM17.9983 18.7424V19.4924H17.2466H16.4949V18.7424V17.9924H17.2466H17.9983V18.7424Z" fill="#7A7363"/>
</svg>
