<svg width="24" height="24" viewBox="0 0 24 24" fill="none" xmlns="http://www.w3.org/2000/svg">
<path d="M21.4877 17.8441C21.0723 17.535 20.4851 17.6213 20.1761 18.0367C20.0061 18.2652 19.8242 18.4893 19.6355 18.7028C19.2926 19.0907 19.329 19.6833 19.7169 20.0262C19.8953 20.1839 20.1168 20.2614 20.3374 20.2614C20.5967 20.2614 20.8549 20.1544 21.0402 19.9448C21.2637 19.6919 21.4791 19.4265 21.6803 19.1559C21.9894 18.7405 21.9032 18.1531 21.4877 17.8441Z" fill="#7A7363"/>
<path d="M23.0549 13.4477C22.5493 13.3376 22.0496 13.6584 21.9395 14.1643C21.8789 14.4426 21.8057 14.7214 21.7217 14.9931C21.5689 15.4878 21.846 16.0127 22.3406 16.1655C22.4328 16.194 22.526 16.2075 22.6177 16.2075C23.018 16.2075 23.3887 15.9491 23.5131 15.5465C23.6127 15.2241 23.6996 14.8932 23.7715 14.5631C23.8816 14.0572 23.5608 13.5578 23.0549 13.4477Z" fill="#7A7363"/>
<path d="M16.9756 20.8466C16.7266 20.9856 16.4689 21.1154 16.2096 21.2326C15.7377 21.4456 15.5279 22.0009 15.741 22.4728C15.8976 22.8195 16.2388 23.0247 16.596 23.0247C16.725 23.0247 16.8561 22.9979 16.9813 22.9414C17.289 22.8024 17.5945 22.6485 17.8896 22.4837C18.3417 22.2313 18.5036 21.6602 18.2511 21.2081C17.9988 20.7561 17.4277 20.5943 16.9756 20.8466Z" fill="#7A7363"/>
<path d="M11.0629 4.5V11.6117L7.62516 15.0494C7.25906 15.4155 7.25906 16.0091 7.62516 16.3752C7.80825 16.5583 8.04811 16.6498 8.28811 16.6498C8.52802 16.6498 8.76797 16.5583 8.95106 16.3752L12.6634 12.6629C12.8392 12.4871 12.9379 12.2486 12.9379 12V4.5C12.9379 3.98222 12.5182 3.5625 12.0004 3.5625C11.4826 3.5625 11.0629 3.98222 11.0629 4.5Z" fill="#7A7363"/>
<path d="M23.0625 2.01562C22.5447 2.01562 22.125 2.43534 22.125 2.95312V5.55638C19.9429 2.13412 16.1321 0 12 0C8.79469 0 5.78123 1.24823 3.51469 3.51469C1.24823 5.78123 0 8.79469 0 12C0 15.2053 1.24823 18.2188 3.51469 20.4853C5.78123 22.7518 8.79469 24 12 24C12.0079 24 12.0156 23.999 12.0234 23.9988C12.0313 23.999 12.039 24 12.0469 24C12.3848 24 12.726 23.9858 13.0611 23.9577C13.5771 23.9145 13.9603 23.4612 13.9171 22.9453C13.8739 22.4293 13.4212 22.0459 12.9046 22.0893C12.6213 22.113 12.3328 22.125 12.0469 22.125C12.039 22.125 12.0313 22.126 12.0234 22.1262C12.0156 22.126 12.0079 22.125 12 22.125C6.41705 22.125 1.875 17.583 1.875 12C1.875 6.41705 6.41705 1.875 12 1.875C15.598 1.875 18.9074 3.7928 20.7157 6.84375H18.138C17.6202 6.84375 17.2005 7.26347 17.2005 7.78125C17.2005 8.29903 17.6202 8.71875 18.138 8.71875H21C21.5709 8.71875 22.1051 8.5583 22.5599 8.28033C22.5891 8.26364 22.6172 8.24569 22.644 8.22633C23.46 7.68956 24 6.76627 24 5.71875V2.95312C24 2.43534 23.5803 2.01562 23.0625 2.01562Z" fill="#7A7363"/>
</svg>
