<svg width="24" height="22" viewBox="0 0 24 22" fill="none" xmlns="http://www.w3.org/2000/svg">
<path d="M24.0592 12.3216L24.0595 12.3215L24.0576 12.3177L19.5278 0.943714C19.5278 0.943702 19.5278 0.94369 19.5278 0.943678C19.4112 0.650627 19.079 0.507591 18.786 0.624165L18.7854 0.624412L18.7843 0.624863C18.784 0.624985 18.7837 0.625111 18.7834 0.625242L0.402567 7.9443L0.402551 7.94426L0.399899 7.94541C0.315765 7.98176 0.241946 8.0381 0.18473 8.10935C0.0108336 8.20889 -0.0980662 8.39348 -0.0999954 8.59501H-0.1V8.59596V20.8452C-0.1 21.1607 0.155718 21.4164 0.471126 21.4164H20.2584C20.5738 21.4164 20.8296 21.1607 20.8296 20.8452V14.2231L23.7403 13.0637L23.7404 13.0637C24.0334 12.9469 24.1761 12.6146 24.0592 12.3216ZM19.3455 5.58051L19.346 5.58029L19.341 5.5707C19.3307 5.55132 19.3191 5.53252 19.3062 5.51452C19.2365 5.25087 18.9874 5.07329 18.7135 5.0957L18.7125 5.09579C17.7959 5.17934 16.8992 4.79321 16.3301 4.06974L16.3292 4.06862C16.1555 3.85421 15.8535 3.7968 15.614 3.92963C15.5945 3.93262 15.5753 3.93653 15.5563 3.94129L15.5561 3.94042L15.5436 3.94538L5.91335 7.78016C5.91324 7.7802 5.91313 7.78024 5.91302 7.78029C5.79286 7.82749 5.69312 7.91404 5.62945 8.02484H3.28792L18.678 1.89688L22.7871 12.2149L20.8296 12.9957V8.59596C20.8296 8.30136 20.6065 8.05884 20.32 8.02812L19.3455 5.58051ZM24.0609 12.3263L24.0609 12.3262L24.0606 12.3254L24.0595 12.3225C24.0602 12.3242 24.0607 12.3258 24.0609 12.3263ZM19.6873 20.2741H1.04225V9.16709H19.6873V20.2741ZM8.38185 8.02719L15.7241 5.10154C16.4271 5.8149 17.3807 6.22605 18.3821 6.2476L19.0897 8.02719H8.38185Z" fill="#7A7363" stroke="#7A7363" stroke-width="0.2"/>
<path d="M2.19157 17.2892L2.19256 17.2895C3.07478 17.5503 3.76513 18.2398 4.02698 19.1216L4.02702 19.1218C4.0992 19.3637 4.32173 19.5295 4.57415 19.5296V19.5298L4.58043 19.5294C4.60199 19.528 4.62337 19.5253 4.64447 19.5214C4.66236 19.5256 4.68047 19.5288 4.69868 19.5311L4.69858 19.5319H4.71128H16.0183V19.5328L16.0312 19.5311C16.0468 19.5291 16.0622 19.5263 16.0775 19.5228C16.358 19.5771 16.6345 19.4019 16.7028 19.1213L16.7029 19.1213L16.7032 19.1199C16.9652 18.2388 17.655 17.5498 18.5366 17.289L18.5374 17.2888C18.8002 17.2084 18.9661 16.9512 18.9332 16.6805C18.9381 16.6595 18.9418 16.6383 18.9444 16.6171L18.9451 16.6172V16.6052V12.8362H18.9458L18.9444 12.8245C18.9419 12.8029 18.938 12.7814 18.9328 12.7602C18.9656 12.4896 18.7997 12.2326 18.5369 12.1525L18.5361 12.1523C17.6533 11.8912 16.9631 11.2005 16.7027 10.3175L16.7024 10.3166C16.6217 10.0521 16.3622 9.88592 16.0901 9.92074C16.0704 9.9161 16.0504 9.91255 16.0303 9.91012L16.0304 9.9094H16.0183H4.71128V9.90869L4.69945 9.9101C4.67779 9.91268 4.65624 9.91655 4.63496 9.92173C4.3645 9.88927 4.10771 10.055 4.02724 10.3174L4.02723 10.3174L4.02696 10.3183C3.76562 11.201 3.07521 11.8912 2.19254 12.1523L2.19254 12.1523L2.19168 12.1526C1.92876 12.2329 1.76291 12.4903 1.796 12.7612C1.7912 12.7822 1.78757 12.8035 1.78515 12.825L1.78452 12.8249V12.8362V16.6052H1.78378L1.78526 16.6173C1.78769 16.6371 1.79122 16.6568 1.79584 16.6762C1.76105 16.9484 1.92714 17.2081 2.19157 17.2892ZM2.92677 13.0944C3.84767 12.7055 4.58062 11.9726 4.96951 11.0517H15.7596C16.1487 11.9726 16.8818 12.7055 17.8028 13.0944V16.347C16.8822 16.7362 16.1494 17.4691 15.7601 18.3897H4.96948C4.58022 17.4691 3.84738 16.7362 2.92677 16.347V13.0944Z" fill="#7A7363" stroke="#7A7363" stroke-width="0.2"/>
<path d="M10.3646 17.6474H10.3647C11.9811 17.6474 13.2915 16.3371 13.2915 14.7207C13.2915 13.1043 11.9811 11.7939 10.3647 11.7939C8.7483 11.7939 7.43796 13.1043 7.43796 14.7207L7.43796 14.7208C7.43955 16.3365 8.74893 17.6458 10.3646 17.6474ZM10.3647 12.9362C11.3503 12.9362 12.1492 13.7351 12.1492 14.7207C12.1492 15.7062 11.3503 16.5052 10.3647 16.5052C9.37917 16.5052 8.58022 15.7062 8.58022 14.7207C8.58022 13.7351 9.37917 12.9362 10.3647 12.9362Z" fill="#7A7363" stroke="#7A7363" stroke-width="0.2"/>
<path d="M5.1824 15.5273C5.62789 15.5273 5.98909 15.1661 5.98909 14.7206C5.98909 14.2751 5.62789 13.9139 5.1824 13.9139C4.7369 13.9139 4.37571 14.2751 4.37571 14.7206C4.37571 15.1662 4.73691 15.5273 5.1824 15.5273ZM5.1824 14.585C5.25726 14.585 5.31796 14.6457 5.31796 14.7206C5.31796 14.7955 5.25726 14.8562 5.1824 14.8562C5.10754 14.8562 5.04683 14.7955 5.04683 14.7206C5.04683 14.6457 5.10754 14.585 5.1824 14.585Z" fill="#7A7363" stroke="#7A7363" stroke-width="0.2"/>
<path d="M15.5471 15.5273C15.9926 15.5273 16.3538 15.1661 16.3538 14.7206C16.3538 14.2751 15.9926 13.9139 15.5471 13.9139C15.1016 13.9139 14.7405 14.2751 14.7405 14.7206C14.7405 15.1662 15.1017 15.5273 15.5471 15.5273ZM15.5471 14.585C15.622 14.585 15.6827 14.6457 15.6827 14.7206C15.6827 14.7955 15.622 14.8562 15.5471 14.8562C15.4723 14.8562 15.4116 14.7955 15.4116 14.7206C15.4116 14.6457 15.4723 14.585 15.5471 14.585Z" fill="#7A7363" stroke="#7A7363" stroke-width="0.2"/>
</svg>
