<svg width="35" height="24" viewBox="0 0 35 24" fill="none" xmlns="http://www.w3.org/2000/svg">
<path d="M2 10.5C1.17157 10.5 0.5 11.1716 0.5 12C0.5 12.8284 1.17157 13.5 2 13.5L2 10.5ZM34.0607 13.0607C34.6464 12.4749 34.6464 11.5251 34.0607 10.9393L24.5147 1.3934C23.9289 0.807613 22.9792 0.807613 22.3934 1.3934C21.8076 1.97919 21.8076 2.92893 22.3934 3.51472L30.8787 12L22.3934 20.4853C21.8076 21.0711 21.8076 22.0208 22.3934 22.6066C22.9792 23.1924 23.9289 23.1924 24.5147 22.6066L34.0607 13.0607ZM2 13.5L33 13.5L33 10.5L2 10.5L2 13.5Z" fill="#7A7363"/>
</svg>
