<?xml version="1.0" standalone="no"?>
<!DOCTYPE svg PUBLIC "-//W3C//DTD SVG 20010904//EN"
 "http://www.w3.org/TR/2001/REC-SVG-20010904/DTD/svg10.dtd">
<svg version="1.0" xmlns="http://www.w3.org/2000/svg"
 width="505.000000pt" height="512.000000pt" viewBox="0 0 505.000000 512.000000"
 preserveAspectRatio="xMidYMid meet">

<g transform="translate(0.000000,512.000000) scale(0.100000,-0.100000)"
fill="#000000" stroke="none">
<path d="M1172 5110 c647 -3 1180 -8 1184 -12 4 -5 -17 -8 -47 -9 -30 0 -63
-2 -74 -3 -297 -42 -488 -95 -735 -204 -411 -181 -753 -460 -1029 -841 -45
-61 -81 -113 -81 -116 0 -3 -18 -34 -40 -69 -84 -133 -205 -414 -251 -586
-132 -485 -129 -931 7 -1395 117 -398 320 -747 600 -1031 282 -286 499 -434
879 -599 165 -71 536 -162 682 -166 l38 -1 -40 -9 c-22 -4 -541 -8 -1152 -8
l-1113 -1 0 -30 0 -30 2525 0 2525 0 0 30 0 30 -1117 1 c-615 0 -1140 4 -1168
9 l-50 7 55 2 c128 3 369 55 570 121 285 95 625 291 840 484 303 273 501 544
665 910 28 62 95 256 111 318 8 32 20 84 28 115 15 62 38 203 56 343 12 105
13 328 1 418 -5 37 -15 108 -21 157 -39 303 -165 654 -336 937 -236 390 -595
728 -997 937 -92 48 -120 61 -252 112 -211 83 -548 159 -703 159 -25 0 -42 3
-38 8 4 4 537 9 1184 12 763 4 287 5 -1353 5 -1640 0 -2116 -1 -1353 -5z
m1678 -235 c659 -99 1237 -461 1596 -1000 265 -398 394 -822 394 -1297 0 -310
-55 -585 -176 -883 -236 -577 -736 -1060 -1324 -1278 -498 -185 -1035 -196
-1534 -33 -133 44 -173 60 -306 124 -354 170 -700 478 -923 822 -186 288 -306
618 -353 974 -26 198 -15 519 25 721 97 492 372 972 739 1289 284 244 536 382
897 493 131 40 349 78 490 87 105 6 377 -5 475 -19z"/>
<path d="M2310 4829 c-711 -80 -1301 -442 -1689 -1034 -63 -96 -177 -328 -220
-445 -37 -104 -95 -335 -113 -450 -17 -111 -17 -517 0 -630 98 -651 454 -1210
1004 -1576 108 -72 356 -194 483 -237 832 -286 1729 -82 2345 533 109 109 243
276 324 403 45 72 146 271 180 357 33 84 72 208 92 290 8 36 19 83 24 105 49
206 49 671 0 880 -107 466 -289 809 -595 1124 -335 345 -752 569 -1215 652
-192 35 -455 47 -620 28z m510 -439 c408 -70 734 -241 1016 -532 260 -269 416
-571 490 -953 25 -128 25 -492 0 -620 -62 -319 -166 -558 -346 -795 -436 -574
-1140 -829 -1866 -676 -394 83 -805 352 -1051 686 -174 237 -269 450 -330 740
-23 113 -26 147 -26 345 -1 234 8 306 57 491 153 570 613 1057 1171 1242 286
95 601 120 885 72z"/>
<path d="M2760 3959 c-259 -25 -319 -29 -446 -28 -77 0 -177 4 -224 8 -154 14
-275 -16 -321 -79 -11 -14 -22 -50 -26 -80 l-8 -55 -45 -6 c-25 -4 -88 -12
-140 -19 -235 -30 -373 -103 -395 -207 -15 -72 61 -253 106 -253 10 0 19 7 19
15 0 22 29 75 40 75 6 0 10 -15 10 -32 0 -46 31 -92 82 -121 61 -36 106 -46
245 -56 105 -8 131 -13 191 -41 39 -18 85 -47 103 -66 37 -38 64 -45 56 -14
-9 33 14 34 44 2 69 -74 128 -163 149 -227 31 -94 25 -223 -14 -310 -30 -67
-93 -163 -161 -245 -39 -48 -56 -80 -41 -80 3 0 21 9 40 21 61 36 43 -1 -37
-78 -113 -107 -137 -122 -394 -239 -18 -8 -33 -19 -33 -24 0 -9 3 -8 139 27
139 36 136 27 -29 -85 -126 -87 -230 -148 -375 -221 -71 -36 -123 -67 -114
-69 9 -1 52 6 95 17 133 34 252 51 355 51 91 0 99 -2 110 -22 23 -44 16 -100
-19 -156 -19 -28 -32 -57 -30 -63 2 -6 35 13 73 43 114 87 253 168 288 168 9
0 24 -26 37 -62 30 -82 37 -89 60 -58 38 49 130 227 166 320 57 149 104 321
104 385 0 19 5 37 10 40 20 13 1 -179 -51 -515 -42 -268 -43 -280 -31 -280 6
0 20 13 31 29 24 34 107 91 131 91 16 0 40 -19 73 -60 15 -17 21 -19 33 -10 8
7 14 17 14 22 0 5 14 27 31 48 76 95 152 84 217 -32 15 -26 32 -48 38 -48 26
0 41 292 25 466 -23 238 -61 404 -142 607 -83 208 -187 385 -327 557 -38 47
-68 87 -66 89 15 16 210 -196 292 -316 219 -322 305 -566 421 -1198 5 -27 15
-80 22 -117 7 -38 18 -68 24 -68 7 0 18 19 25 42 16 56 64 151 84 167 26 22
43 -2 60 -87 9 -42 19 -87 22 -99 7 -34 18 -28 42 22 12 24 38 62 58 85 62 69
115 54 189 -54 38 -56 55 -69 55 -42 0 7 -18 56 -39 107 -32 78 -81 219 -81
235 0 11 38 1 60 -16 35 -27 53 -26 44 3 -7 23 -169 343 -219 432 -142 252
-256 431 -338 527 -31 37 -57 71 -57 75 0 15 144 -135 223 -232 198 -245 351
-532 513 -962 22 -57 44 -101 49 -100 6 2 13 58 16 125 9 168 18 234 32 229 7
-2 27 -47 46 -100 18 -53 37 -97 42 -97 10 0 12 69 9 300 -1 150 -21 363 -46
509 -8 46 -13 86 -10 88 2 3 14 0 25 -7 32 -17 36 7 16 96 -20 88 -46 157 -92
236 -37 63 -40 73 -19 65 8 -3 22 0 32 7 16 12 16 15 -6 47 -85 122 -283 327
-409 423 -174 133 -399 256 -571 311 -47 15 -89 31 -94 36 -5 5 8 31 31 61 60
80 73 101 73 120 0 20 -23 21 -170 7z m-520 -167 c0 -14 -40 -92 -48 -92 -249
-14 -252 -13 -189 33 51 39 74 48 140 56 88 12 97 12 97 3z m-280 -31 c0 -11
-4 -23 -10 -26 -5 -3 -10 -16 -10 -29 0 -18 -10 -25 -55 -40 -30 -9 -57 -21
-60 -26 -8 -12 -125 -13 -125 -1 0 5 29 21 65 37 36 15 69 33 73 39 7 12 99
64 115 65 4 0 7 -9 7 -19z m390 -170 c0 -4 -9 -20 -21 -35 -30 -38 -19 -52 48
-60 168 -20 370 -99 454 -176 l44 -41 -45 6 c-25 3 -76 15 -113 26 -38 11 -76
17 -85 13 -25 -11 -41 -6 -89 28 -64 43 -237 131 -323 163 -91 34 -105 45 -59
46 18 0 63 8 99 18 79 22 90 24 90 12z m-673 -162 c68 -16 103 -30 103 -40 0
-14 -57 -10 -111 7 -62 21 -133 14 -162 -14 -17 -18 -18 -23 -7 -37 11 -14 15
-14 36 0 28 18 96 20 127 3 12 -6 49 -14 82 -17 l60 -6 -49 -18 c-91 -31 -231
-18 -351 33 -25 11 -45 26 -45 34 0 50 195 84 317 55z m1408 -520 c77 -78 135
-144 128 -146 -19 -7 -91 35 -104 60 -21 40 -90 120 -208 241 l-116 119 80
-66 c44 -36 143 -129 220 -208z m-678 -55 c50 -88 67 -268 50 -509 l-12 -170
-6 190 c-7 197 -21 302 -62 442 -13 46 -22 85 -19 88 11 11 28 -3 49 -41z"/>
</g>
</svg>
